<?xml version="1.0"?>
<svg xmlns="http://www.w3.org/2000/svg" viewBox="0 0 24 24">
    <path d="M21.749,14.235c0.187-0.811,0.271-1.644,0.25-2.475c-0.016-0.658-0.1-1.322-0.251-1.985l-1.947,0.454 c0.058,0.256,0.103,0.514,0.136,0.772H18.92c-0.17-1.185-0.634-2.271-1.32-3.187l0.716-0.716c0.158,0.203,0.312,0.411,0.449,0.628 l1.691-1.068c-0.795-1.259-1.886-2.343-3.155-3.136l-1.059,1.696c0.228,0.143,0.447,0.301,0.66,0.467l-0.715,0.715 C15.271,5.714,14.185,5.249,13,5.08V4.067c0.256,0.032,0.512,0.071,0.764,0.128l0.444-1.95c-1.445-0.328-3.054-0.31-4.349-0.01 L9.741,2.259l0.487,1.94c0.255-0.058,0.513-0.098,0.772-0.13V5.08c-1.185,0.17-2.271,0.634-3.187,1.32L7.097,5.683 c0.205-0.16,0.415-0.314,0.634-0.453L6.665,3.539c-1.259,0.793-2.344,1.883-3.139,3.15l1.695,1.062 c0.142-0.226,0.299-0.443,0.463-0.654l0.715,0.715C5.714,8.729,5.249,9.815,5.08,11H4.07c0.032-0.259,0.068-0.518,0.126-0.773 L2.246,9.784c-0.184,0.804-0.266,1.631-0.245,2.457c0.016,0.657,0.1,1.322,0.244,1.956l0.003,0.016l1.951-0.441 C4.141,13.516,4.096,13.258,4.063,13H5.08c0.17,1.185,0.634,2.271,1.32,3.187l-0.716,0.716c-0.162-0.207-0.317-0.42-0.457-0.642 l-1.693,1.065c0.793,1.26,1.881,2.347,3.148,3.142l1.063-1.694c-0.224-0.141-0.438-0.297-0.647-0.459l0.715-0.715 c0.915,0.685,2.002,1.15,3.187,1.32v1.014c-0.261-0.033-0.522-0.074-0.779-0.132l-0.445,1.949c0.807,0.185,1.636,0.268,2.465,0.247 c0.661-0.017,1.324-0.1,1.941-0.24l0.009-0.002l-0.418-1.956c-0.255,0.058-0.513,0.098-0.772,0.131V18.92 c1.185-0.17,2.271-0.634,3.187-1.32l0.716,0.716c-0.209,0.163-0.423,0.319-0.647,0.46l1.064,1.694 c1.26-0.792,2.347-1.879,3.144-3.145l-1.693-1.065c-0.14,0.222-0.295,0.434-0.456,0.641l-0.715-0.715 c0.685-0.915,1.15-2.002,1.32-3.187h1.009c-0.033,0.264-0.07,0.527-0.13,0.786L21.749,14.235z M7,12c0-0.552,0.448-1,1-1 s1,0.448,1,1c0,0.552-0.448,1-1,1S7,12.552,7,12z M9,16c-0.552,0-1-0.448-1-1c0-0.552,0.448-1,1-1s1,0.448,1,1 C10,15.552,9.552,16,9,16z M9,10c-0.552,0-1-0.448-1-1c0-0.552,0.448-1,1-1s1,0.448,1,1C10,9.552,9.552,10,9,10z M12,17 c-0.552,0-1-0.448-1-1c0-0.552,0.448-1,1-1s1,0.448,1,1C13,16.552,12.552,17,12,17z M12,13c-0.552,0-1-0.448-1-1 c0-0.552,0.448-1,1-1s1,0.448,1,1C13,12.552,12.552,13,12,13z M12,9c-0.552,0-1-0.448-1-1c0-0.552,0.448-1,1-1s1,0.448,1,1 C13,8.552,12.552,9,12,9z M15,8c0.552,0,1,0.448,1,1c0,0.552-0.448,1-1,1s-1-0.448-1-1C14,8.448,14.448,8,15,8z M15,16 c-0.552,0-1-0.448-1-1c0-0.552,0.448-1,1-1s1,0.448,1,1C16,15.552,15.552,16,15,16z M16,13c-0.552,0-1-0.448-1-1 c0-0.552,0.448-1,1-1s1,0.448,1,1C17,12.552,16.552,13,16,13z"/>
</svg>
