<?xml version="1.0" encoding="utf-8"?>
<!-- Generator: Adobe Illustrator 23.0.4, SVG Export Plug-In . SVG Version: 6.00 Build 0)  -->
<svg version="1.1" id="Layer_1" xmlns="http://www.w3.org/2000/svg" xmlns:xlink="http://www.w3.org/1999/xlink" x="0px" y="0px"
	 viewBox="0 0 24 24" style="enable-background:new 0 0 24 24;" xml:space="preserve">
<style type="text/css">
	.st0{fill:#B73779;}
</style>
<path class="st0" d="M21.7,14.2c0.2-0.8,0.3-1.6,0.2-2.5c0-0.7-0.1-1.3-0.3-2l-1.9,0.5c0.1,0.3,0.1,0.5,0.1,0.8h-1
	c-0.2-1.2-0.6-2.3-1.3-3.2l0.7-0.7c0.2,0.2,0.3,0.4,0.4,0.6l1.7-1.1c-0.8-1.3-1.9-2.3-3.2-3.1l-1.1,1.7c0.2,0.1,0.4,0.3,0.7,0.5
	l-0.7,0.7c-0.9-0.7-2-1.2-3.2-1.3v-1c0.3,0,0.5,0.1,0.8,0.1l0.4-2c-1.4-0.3-3.1-0.3-4.3,0l-0.1,0l0.5,1.9c0.3-0.1,0.5-0.1,0.8-0.1v1
	C9.8,5.2,8.7,5.7,7.8,6.4L7.1,5.7c0.2-0.2,0.4-0.3,0.6-0.5L6.7,3.5C5.4,4.3,4.3,5.4,3.5,6.7l1.7,1.1c0.1-0.2,0.3-0.4,0.5-0.7
	l0.7,0.7c-0.7,0.9-1.2,2-1.3,3.2h-1c0-0.3,0.1-0.5,0.1-0.8l-2-0.4C2.1,10.6,2,11.4,2,12.2c0,0.7,0.1,1.3,0.2,2l0,0l2-0.4
	c-0.1-0.3-0.1-0.5-0.1-0.8h1c0.2,1.2,0.6,2.3,1.3,3.2l-0.7,0.7c-0.2-0.2-0.3-0.4-0.5-0.6l-1.7,1.1c0.8,1.3,1.9,2.3,3.1,3.1l1.1-1.7
	c-0.2-0.1-0.4-0.3-0.6-0.5l0.7-0.7c0.9,0.7,2,1.1,3.2,1.3v1c-0.3,0-0.5-0.1-0.8-0.1l-0.4,1.9c0.8,0.2,1.6,0.3,2.5,0.2
	c0.7,0,1.3-0.1,1.9-0.2l0,0l-0.4-2c-0.3,0.1-0.5,0.1-0.8,0.1v-1c1.2-0.2,2.3-0.6,3.2-1.3l0.7,0.7c-0.2,0.2-0.4,0.3-0.6,0.5l1.1,1.7
	c1.3-0.8,2.3-1.9,3.1-3.1l-1.7-1.1c-0.1,0.2-0.3,0.4-0.5,0.6l-0.7-0.7c0.7-0.9,1.1-2,1.3-3.2h1c0,0.3-0.1,0.5-0.1,0.8L21.7,14.2z
	 M7,12c0-0.6,0.4-1,1-1s1,0.4,1,1s-0.4,1-1,1S7,12.6,7,12z M9,16c-0.6,0-1-0.4-1-1s0.4-1,1-1s1,0.4,1,1S9.6,16,9,16z M9,10
	c-0.6,0-1-0.4-1-1s0.4-1,1-1s1,0.4,1,1S9.6,10,9,10z M12,17c-0.6,0-1-0.4-1-1s0.4-1,1-1s1,0.4,1,1S12.6,17,12,17z M12,13
	c-0.6,0-1-0.4-1-1s0.4-1,1-1s1,0.4,1,1S12.6,13,12,13z M12,9c-0.6,0-1-0.4-1-1s0.4-1,1-1s1,0.4,1,1S12.6,9,12,9z M15,8
	c0.6,0,1,0.4,1,1s-0.4,1-1,1s-1-0.4-1-1S14.4,8,15,8z M15,16c-0.6,0-1-0.4-1-1s0.4-1,1-1s1,0.4,1,1S15.6,16,15,16z M16,13
	c-0.6,0-1-0.4-1-1s0.4-1,1-1s1,0.4,1,1S16.6,13,16,13z"/>
</svg>
