<svg version="1" xmlns="http://www.w3.org/2000/svg" width="933.333" height="933.333" viewBox="0 0 700.000000 700.000000"><path d="M332.7 57.6c-.1.1-5.4.5-11.7.9-6.3.4-11.7.8-12 1-.3.2-3 .6-6 .9-9.2 1-22.5 4-22.5 5.1.1.6.4 1.9.8 3 .3 1.1.8 3.1 1.1 4.5.3 2.1 5.8 22.9 10.9 41.7 1.2 4.6 1.9 4.9 7.7 3.3 3.4-.9 10.1-1.4 14.8-1.1 2.2.1 2.2.3 2.2 14.5v14.3l-6.2 1.3c-12.2 2.5-34.1 10.3-47.6 17-12.6 6.3-29.9 16.8-34.7 21-2 1.7-2.2 1.5-12.3-8.5l-10.3-10.4 7.8-6.2c4.3-3.4 8.2-6.8 8.6-7.6.8-1.2-7.4-16-24.8-45l-3.2-5.3-8.2 5.5c-30.7 20.3-58.8 48.5-79.4 79.4l-5.6 8.5 11.7 7.6c29 18.8 37.1 24 37.5 24 .2 0 3.6-4.5 7.7-9.9l7.3-10 9.8 9.7c5.4 5.3 9.9 10.1 9.9 10.5 0 .5-2 3.6-4.4 7-17.8 25.2-27.6 49.7-32.4 81.2l-.7 5-13.9.3c-8.9.2-14.2-.1-14.6-.8-.3-.5-.1-4.3.6-8.3 2.7-15.6 2.9-14.2-2.7-15.2-1.9-.3-4.1-.8-4.9-1-.8-.2-3.1-.7-5-1-1.9-.3-4.2-.8-5-1-.8-.2-3.1-.7-5-1-1.9-.3-10-1.9-18-3.5-8-1.7-14.8-3-15.2-3-.4 0-1 2.6-1.3 5.7-.4 3.2-.8 6.9-1.1 8.2-.2 1.4-.6 5.4-1 9-.3 3.6-.8 7.9-1 9.6-2.6 19.8-2.2 51.8 1 75.9 1.4 10.3 2.7 19 2.9 19.2.2.3 6-.7 12.8-2 6.8-1.4 13.5-2.7 14.9-3 15.2-2.9 29.6-5.9 29.8-6.1.2-.2-.1-2.7-.7-5.7-1.3-6.1-2-14.7-1.3-16.6.3-.9 4.2-1.2 14.7-1.2h14.3l.7 4.2c4.6 29 20.4 68.3 34.2 85.1 1.3 1.6 2.3 3.3 2.3 3.8 0 .6-4.5 5.5-9.9 11.1l-10 10-6.8-8.6c-4.3-5.6-7.3-8.6-8.3-8.3-1.3.3-8.9 5.2-41.7 26.6l-7.3 4.7 6.1 9c18.4 26.9 45.7 54.4 72.4 72.9 3.9 2.6 8.1 5.6 9.4 6.7l2.4 1.9 5.7-8.8c3.2-4.9 10.1-15.5 15.5-23.7 5.3-8.3 9.9-15.5 10.2-16.1.2-.7-1.3-2.5-3.4-4-2.1-1.5-5.9-4.8-8.5-7.3l-4.7-4.6 9.9-9.9c11.4-11.4 9.6-11.1 21-3.1 17.4 12.3 50.3 24.9 76.3 29.4l6.8 1.2-.3 14.7c-.3 13.9-.4 14.6-2.3 14.4-1.1-.1-6-.8-11-1.6-4.9-.8-9.3-1.1-9.6-.8-.6.5-4 15.3-5.5 23.6-.3 1.6-1.4 6.8-2.4 11.5s-2.1 9.6-2.4 11c-.2 1.4-.8 3.9-1.1 5.6l-.7 3.1 6.4 1.6c6.1 1.5 13.7 2.9 24.3 4.3 9.6 1.3 56 .6 65.5-1 1.4-.2 5-.7 8-1 8.9-1 23.2-3.4 23.8-4.1.2-.2-.6-4.7-1.7-10.2-1.1-5.4-2.3-11.4-2.6-13.3-.3-1.9-.8-4.2-1-5-.5-1.7-.5-1.9-3.6-17.8-2.1-11.2-2.2-11.3-4.6-10.7-3.7.9-9.1 1.6-15.5 1.8l-5.8.3v-29.2l9.3-1.8c28.6-5.4 58-17.4 78.8-32.3 2.6-1.8 5-3.3 5.4-3.3.4 0 5.2 4.5 10.6 10l9.9 9.9-8.2 6.7c-4.6 3.6-8.5 7-8.6 7.5-.2.5 6.7 11.9 15.4 25.4l15.9 24.4 3-1.9c3.9-2.5 20.5-14.2 21.9-15.5.7-.5 4.1-3.5 7.6-6.5 7.4-6.2 24.4-23 30.8-30.5 4.5-5.3 22.8-29.2 25.5-33.5l1.6-2.5-24.6-15.9-24.6-15.8-2.6 3.3c-1.4 1.9-4.8 5.8-7.5 8.7l-4.9 5.2-9.8-9.7c-5.4-5.4-9.9-10.1-9.9-10.6 0-.4 2.7-4.7 6-9.6 11.2-16.6 21.6-40.8 26.5-61.1 3.1-13.4 4.3-19 4.4-21.1.1-1.5 1.9-1.7 14.7-1.7h14.6l-.6 6.7c-.3 3.6-1 8.2-1.4 10.1-1.4 6.4-1.8 6.2 15.3 10.8 27.2 7.2 38.9 10.2 39.3 9.8.5-.6 3.3-12.6 3.8-17.1.3-2.2.7-4.6 1-5.3 2.3-7.2 2.3-60.1-.1-72.2-.3-1.4-.7-4.1-.9-6-1.4-11.3-6.1-30-7.6-30-.4 0-3 .7-5.6 1.5-2.7.9-14.6 4-26.4 7.1-11.7 3-21.6 5.7-21.8 5.9-.3.2 0 2.4.7 4.7 1.2 4.8 2.1 15.6 1.3 17.6-.3 1-3.9 1.2-14.6 1.1l-14.2-.1-1.8-8.6c-2.3-11.7-2.2-11.3-5.2-21.6-2.4-8.6-5.4-17-9.2-26.1-2.9-6.9-12.3-23.8-16.8-30.1-2.4-3.4-4.4-6.5-4.4-6.8 0-.4 4.5-5.2 9.9-10.6l10-10 3.4 4.3c1.9 2.3 4.2 5.5 5 7.2 3.4 6.3 2.4 6.6 18.9-4.1 8.4-5.4 19.4-12.6 24.5-15.9l9.2-6.1-4.1-6.4c-16.9-26.7-45.2-54.7-77.1-76.1l-11.8-7.9-16 24.6c-8.8 13.6-15.6 25-15.2 25.4.4.3 5 3.7 10.1 7.5l9.3 6.9-10.3 10.2c-10.1 10.2-10.3 10.3-12.3 8.5-3.2-3-21.3-14.4-29-18.3-16.4-8.3-36.4-14.7-53.3-17l-8.9-1.2.1-14.6c.1-8.9.5-14.4 1.1-14.4.6.1 3 .4 5.5.8 2.5.3 6.8.9 9.7 1.4 6 1 7 .6 7.6-2.9.3-1.4 2.3-11.5 4.6-22.5 6.2-30.5 6.5-32.4 5.9-32.4-.3 0-3-.5-5.9-1.1-5.8-1.1-7.7-1.4-15.4-2.4-2.7-.3-6-.8-7.2-1-6.4-1-45.7-2.6-46.6-1.9zm30.8 149.5c9.1 4.3 14.5 12.6 15.3 23.8.9 13.2-4.5 23.4-15.3 28.6-10.9 5.4-27 3-34.7-5.2-5.6-6-7.2-10.2-7.5-19.5-.3-12.4 2.5-18.8 10.9-25.2 7.6-5.7 22-6.9 31.3-2.5zm-90.8 27.8c10 2.8 17.9 13.2 18.7 24.7 1.2 19.8-11.5 32.9-30.9 31.8-16.5-.9-26.3-11.3-27-28.4-.8-20.9 17.5-34.1 39.2-28.1zm177.6 1c14.5 6.2 20.3 23.8 13.3 40.4-7.9 18.9-40.4 20.4-50.9 2.4-8-13.7-4.3-32.9 7.8-40.5 8.2-5.2 20.7-6.2 29.8-2.3zm-206.9 86.5c23.3 7 25.8 43.3 3.8 53.9-6.6 3.1-20.7 3.1-27.2.1-5.8-2.7-10.2-7.2-13.1-13.2-3.3-7-3.3-19.8.1-26.6 6.6-12.9 21.4-18.7 36.4-14.2zm121.7 2.2c6 3.4 11.2 10 13 16.7 1.6 6.1.7 17.3-1.9 22.4-5 9.6-14.7 15.3-26.2 15.3-11.3 0-20.5-5.1-25.5-14.1-2.7-4.9-3-6.2-3-14.9 0-8.8.2-9.9 3.1-15 3.2-5.7 9.8-11.1 15.8-13 1.7-.5 6.7-.8 11.2-.7 6.8.3 8.9.8 13.5 3.3zm115-.9c5.7 2.5 10.1 7 13 13.1 3.2 6.6 3.2 19.8.1 26.3-5.1 10.3-13 15.2-25.5 15.6-8.6.2-14.1-1.3-19.4-5.3-10.7-8.2-13.9-25.3-7.2-38.5 2.5-4.9 9.3-10.6 14.9-12.4 6.3-2 18.2-1.4 24.1 1.2zm-203.5 87.9c6.1 3.1 8.4 5.3 11.3 11 2.9 5.6 3.4 7.7 3.3 15.9 0 11.9-5.9 21.2-16.2 25.8-6.5 2.9-18.8 2.8-25.3-.2-12.7-5.8-18.3-18.5-15.4-34.6 1.5-7.8 7.9-15.6 15.4-18.6 8.4-3.4 19.3-3.1 26.9.7zm173.5-.8c11.3 4.9 17.1 15.4 16.3 29.2-1.1 16.6-12.3 26.5-30 26.4-16.9-.1-27.8-11.6-27.7-29.3.1-11.4 4.4-19.5 13.4-24.9 7.2-4.3 19.7-4.9 28-1.4zm-90.5 28.1c15.1 4.1 23.3 22.1 17.6 38.7-4.2 12-14.7 18.6-28.9 17.9-16.2-.7-27.3-12.2-27.3-28.4 0-21.4 17.2-34 38.6-28.2z"/></svg>